<mxfile host="app.diagrams.net" modified="2024-03-13T13:21:02.629Z" agent="Mozilla/5.0 (Windows NT 10.0; Win64; x64) AppleWebKit/537.36 (KHTML, like Gecko) Chrome/122.0.0.0 Safari/537.36" version="24.0.5" etag="Aj-E3bvQ2dulW_aw94XO" type="github">
  <diagram name="페이지-1" id="B2fc_v4toWoqum7T9ilw">
    <mxGraphModel>
      <root>
        <mxCell id="0" />
        <mxCell id="1" parent="0" />
      </root>
    </mxGraphModel>
  </diagram>
</mxfile>
